# xmcd
#
# Track frame offsets: 
#        150
#        21792
#        43379
#        64427
#        86717
#        102677
#        120716
#        140829
#        160110
#        171924
#        181545
#        204173
#        220465
#        240290
#        261216
#        286866
#        302531
#        316053
#        334709
#
# Disc length: 4727 seconds
#
# Revision: 1
# Processed by: cddbd v1.5.2PL0 Copyright (c) Steve Scherf et al.
# Submitted via: ExactAudioCopyFreeDBPlugin 1.0
#
DISCID=13127513
DTITLE=Eoin Colfer - Artemis Fowl 7 - Der Atlantis-Komplex
DYEAR=2011
DGENRE=Hörbuch
TTITLE0=Der Atlantis-Komplex CD 4_01
TTITLE1=Der Atlantis-Komplex CD 4_02
TTITLE2=Der Atlantis-Komplex CD 4_03
TTITLE3=Der Atlantis-Komplex CD 4_04
TTITLE4=Der Atlantis-Komplex CD 4_05
TTITLE5=Der Atlantis-Komplex CD 4_06
TTITLE6=Der Atlantis-Komplex CD 4_07
TTITLE7=Der Atlantis-Komplex CD 4_08
TTITLE8=Der Atlantis-Komplex CD 4_09
TTITLE9=Der Atlantis-Komplex CD 4_10
TTITLE10=Der Atlantis-Komplex CD 4_11
TTITLE11=Der Atlantis-Komplex CD 4_12
TTITLE12=Der Atlantis-Komplex CD 4_13
TTITLE13=Der Atlantis-Komplex CD 4_14
TTITLE14=Der Atlantis-Komplex CD 4_15
TTITLE15=Der Atlantis-Komplex CD 4_16
TTITLE16=Der Atlantis-Komplex CD 4_17
TTITLE17=Der Atlantis-Komplex CD 4_18
TTITLE18=Der Atlantis-Komplex CD 4_19
EXTD=YEAR: 2011
EXTT0=
EXTT1=
EXTT2=
EXTT3=
EXTT4=
EXTT5=
EXTT6=
EXTT7=
EXTT8=
EXTT9=
EXTT10=
EXTT11=
EXTT12=
EXTT13=
EXTT14=
EXTT15=
EXTT16=
EXTT17=
EXTT18=
PLAYORDER=
